# xmcd CD database file
#
# Track frame offsets:
#	150
#	29368
#	42187
#	59905
#	71233
#	87649
#	108214
#	126842
#	139586
#	153036
#	165631
#	179333
#
# Disc length: 2453 seconds
#
# Revision: 3
# Processed by: cddbd v1.5.2PL0 Copyright (c) Steve Scherf et al.
# Submitted via: CDex 1.81
#
DISCID=a709930c
DTITLE=Various Artist - The Birdland All-Stars Live At Carnegie Hall [CD2]
DYEAR=1954
DGENRE=Jazz
TTITLE0=Sure Thing - Count Basie
TTITLE1=Pennies From Heaven - Lester Young and Count Basie
TTITLE2=Jumpin' At The Woodside /Lester Young
TTITLE3=Perdido - Sarah Vaughan and Count Basie
TTITLE4=Polka Dots and Moonbeams  - Sarah Vaughan and Count Basie
TTITLE5=Medley: I Ain't Mad - Summertie - Sarah Vaughan
TTITLE6=Saturday - Sarah Vaughan
TTITLE7=Time - Sarah Vaughan
TTITLE8=That Old Devil Moon - Sarah Vaughan
TTITLE9=Tenderly - Sarah Vaughan
TTITLE10=Don't Blame Me - Sarah Vaughan
TTITLE11=Finale
EXTD=Powerd by gracenote music web API YEAR: 1954
EXTT0=
EXTT1=
EXTT2=
EXTT3=
EXTT4=
EXTT5=
EXTT6=
EXTT7=
EXTT8=
EXTT9=
EXTT10=
EXTT11=
PLAYORDER=
